<svg width="27" height="27" viewBox="0 0 27 27" fill="none" xmlns="http://www.w3.org/2000/svg">
<path fill-rule="evenodd" clip-rule="evenodd" d="M14.31 12.8291L19.5628 18.0819L18.4181 19.2281L12.69 13.5V5.4H14.31V12.8291ZM13.5 27C6.04395 27 0 20.9561 0 13.5C0 6.04395 6.04395 0 13.5 0C20.9561 0 27 6.04395 27 13.5C27 20.9561 20.9561 27 13.5 27ZM13.5 25.38C16.6508 25.38 19.6725 24.1284 21.9004 21.9004C24.1284 19.6725 25.38 16.6508 25.38 13.5C25.38 10.3492 24.1284 7.3275 21.9004 5.09957C19.6725 2.87164 16.6508 1.62 13.5 1.62C10.3492 1.62 7.3275 2.87164 5.09957 5.09957C2.87164 7.3275 1.62 10.3492 1.62 13.5C1.62 16.6508 2.87164 19.6725 5.09957 21.9004C7.3275 24.1284 10.3492 25.38 13.5 25.38Z" fill="#898A8D"/>
</svg>
