<svg width="26" height="31" viewBox="0 0 26 31" fill="none" xmlns="http://www.w3.org/2000/svg">
<path d="M13.7613 29.215C13.5029 29.4006 13.1928 29.5004 12.8747 29.5004C12.5565 29.5004 12.2464 29.4006 11.988 29.215C4.34207 23.7652 -3.77251 12.5552 4.43074 4.45483C6.68278 2.23951 9.71564 0.998613 12.8747 1C16.0413 1 19.0797 2.24292 21.3186 4.45325C29.5218 12.5536 21.4072 23.762 13.7613 29.215Z" stroke="#898A8D" stroke-width="1.83871" stroke-linecap="round" stroke-linejoin="round"/>
<path d="M12.8747 15.2498C13.7145 15.2498 14.52 14.9162 15.1138 14.3223C15.7077 13.7285 16.0413 12.923 16.0413 12.0832C16.0413 11.2433 15.7077 10.4379 15.1138 9.844C14.52 9.25013 13.7145 8.9165 12.8747 8.9165C12.0348 8.9165 11.2294 9.25013 10.6355 9.844C10.0416 10.4379 9.70801 11.2433 9.70801 12.0832C9.70801 12.923 10.0416 13.7285 10.6355 14.3223C11.2294 14.9162 12.0348 15.2498 12.8747 15.2498Z" stroke="#898A8D" stroke-width="1.83871" stroke-linecap="round" stroke-linejoin="round"/>
</svg>
