<svg width="38" height="38" viewBox="0 0 38 38" fill="none" xmlns="http://www.w3.org/2000/svg">
<path d="M8.9959 19.3768L8.12811 22.1411C7.80467 23.1919 7.25547 24.147 6.52458 24.9296C5.79369 25.7122 4.90148 26.3007 3.91956 26.6477L1.30259 27.5781C1.23673 27.601 1.17688 27.6403 1.12795 27.6927C1.07903 27.7451 1.04243 27.8092 1.02116 27.8797C0.999894 27.9502 0.99456 28.0251 1.0056 28.0983C1.01664 28.1714 1.04374 28.2407 1.08467 28.3004C1.13885 28.3807 1.21499 28.4411 1.30259 28.4732L3.91956 29.4016C4.89254 29.7483 5.77655 30.3329 6.50137 31.1091C7.22619 31.8852 7.77186 32.8315 8.09504 33.8728L8.96282 36.6745C8.99146 36.7691 9.04737 36.8516 9.12252 36.91C9.19768 36.9685 9.28822 37 9.38115 37C9.47407 37 9.56461 36.9685 9.63977 36.91C9.71492 36.8516 9.77083 36.7691 9.79947 36.6745L10.6984 33.9082C11.0229 32.8677 11.569 31.9222 12.2937 31.1462C13.0183 30.3703 13.9016 29.7851 14.8739 29.437L17.4908 28.5086C17.5792 28.4779 17.6563 28.4181 17.711 28.3377C17.7656 28.2573 17.795 28.1605 17.795 28.061C17.795 27.9616 17.7656 27.8648 17.711 27.7844C17.6563 27.704 17.5792 27.6442 17.4908 27.6135L14.9069 26.6477C13.9243 26.3021 13.0313 25.7142 12.3003 24.9314C11.5692 24.1485 11.0205 23.1927 10.6984 22.1411L9.8306 19.3414C9.79864 19.2478 9.73975 19.1675 9.6624 19.1121C9.58506 19.0566 9.49326 19.0289 9.40022 19.0328C9.30718 19.0367 9.21771 19.0722 9.1447 19.134C9.07169 19.1958 9.01891 19.2808 8.99395 19.3768M24.6802 1.47329L23.4661 5.34499C23.0145 6.81709 22.2458 8.15505 21.2221 9.25097C20.1984 10.3469 18.9483 11.1701 17.5726 11.6542L13.9107 12.9552C13.7866 12.9976 13.6782 13.0812 13.6014 13.1938C13.5245 13.3064 13.4831 13.4423 13.4831 13.5817C13.4831 13.7212 13.5245 13.857 13.6014 13.9696C13.6782 14.0822 13.7866 14.1658 13.9107 14.2083L17.5726 15.5092C18.9353 15.9936 20.1736 16.8116 21.1887 17.8983C22.2037 18.985 22.9676 20.3102 23.4194 21.7685L24.6355 25.6902C24.677 25.8204 24.7557 25.9336 24.8603 26.0137C24.965 26.0938 25.0905 26.1368 25.2192 26.1368C25.3479 26.1368 25.4733 26.0938 25.578 26.0137C25.6827 25.9336 25.7613 25.8204 25.8029 25.6902L27.0656 21.8185C27.5188 20.361 28.2831 19.0365 29.298 17.95C30.3129 16.8635 31.5504 16.045 32.9125 15.5592L36.5723 14.2582C36.6965 14.2158 36.8048 14.1322 36.8817 14.0196C36.9586 13.907 37 13.7711 37 13.6317C37 13.4922 36.9586 13.3564 36.8817 13.2438C36.8048 13.1312 36.6965 13.0476 36.5723 13.0051L32.9572 11.6542C31.5811 11.1713 30.3307 10.3485 29.3071 9.25236C28.2835 8.15625 27.5157 6.81766 27.0656 5.34499L25.8496 1.42333C25.8034 1.29455 25.7206 1.18451 25.6129 1.10867C25.5052 1.03284 25.378 0.995014 25.2491 1.00053C25.1203 1.00604 24.9963 1.05461 24.8946 1.13941C24.7929 1.22421 24.7167 1.34097 24.6802 1.47329Z" stroke="#898A8D" stroke-width="1.5" stroke-linecap="round" stroke-linejoin="round"/>
</svg>
