<svg width="30" height="24" viewBox="0 0 30 24" fill="none" xmlns="http://www.w3.org/2000/svg">
<path d="M1.14859 1.14859V0C0.843963 0 0.551815 0.121011 0.336413 0.336413C0.121011 0.551815 0 0.843963 0 1.14859H1.14859ZM28.7147 1.14859H29.8633C29.8633 0.843963 29.7423 0.551815 29.5269 0.336413C29.3115 0.121011 29.0193 0 28.7147 0V1.14859ZM1.14859 2.29718H28.7147V0H1.14859V2.29718ZM27.5661 1.14859V19.526H29.8633V1.14859H27.5661ZM25.6518 21.4403H4.21149V23.7375H25.6518V21.4403ZM2.29718 19.526V1.14859H0V19.526H2.29718ZM4.21149 21.4403C3.15479 21.4403 2.29718 20.5827 2.29718 19.526H0C0 20.6429 0.443709 21.7142 1.23352 22.504C2.02332 23.2938 3.09453 23.7375 4.21149 23.7375V21.4403ZM27.5661 19.526C27.5661 20.5827 26.7085 21.4403 25.6518 21.4403V23.7375C26.7687 23.7375 27.84 23.2938 28.6298 22.504C29.4196 21.7142 29.8633 20.6429 29.8633 19.526H27.5661Z" fill="#898A8D"/>
<path d="M1.14844 1.14893L14.9315 14.932L28.7145 1.14893" stroke="#898A8D" stroke-width="1.5" stroke-linecap="round" stroke-linejoin="round"/>
</svg>
